<svg width="58" height="27" viewBox="0 0 58 27" fill="none" xmlns="http://www.w3.org/2000/svg">
<path d="M7 11C7.16667 10.1667 10 9.1 20 11.5L7 11Z" fill="#D7D7D7" stroke="#D7D7D7" stroke-width="0.3" stroke-linecap="round"/>
<path d="M24.378 17V13.136H25.05L26.274 15.638L27.492 13.136H28.164V17H27.516V14.198L26.472 16.334H26.076L25.026 14.198V17H24.378ZM30.629 17.06C30.017 17.06 29.559 16.9 29.255 16.58C28.951 16.256 28.799 15.756 28.799 15.08C28.799 14.376 28.951 13.866 29.255 13.55C29.559 13.234 30.017 13.076 30.629 13.076C31.245 13.076 31.703 13.234 32.003 13.55C32.307 13.866 32.459 14.376 32.459 15.08C32.459 15.756 32.307 16.256 32.003 16.58C31.703 16.9 31.245 17.06 30.629 17.06ZM30.629 16.508C31.033 16.508 31.329 16.398 31.517 16.178C31.709 15.954 31.805 15.588 31.805 15.08C31.805 14.544 31.709 14.17 31.517 13.958C31.329 13.742 31.033 13.634 30.629 13.634C30.229 13.634 29.933 13.742 29.741 13.958C29.553 14.17 29.459 14.544 29.459 15.08C29.459 15.588 29.553 15.954 29.741 16.178C29.933 16.398 30.229 16.508 30.629 16.508ZM34.2185 17L32.7425 13.136H33.4205L34.5785 16.298L35.7365 13.136H36.4145L34.9505 17H34.2185ZM36.9698 17V13.136H37.6238V17H36.9698ZM38.3819 17V13.136H41.0759V13.646H39.0359V14.816H40.8539V15.32H39.0359V16.496H41.0759V17H38.3819Z" fill="white"/>
<path d="M26.15 24V18.6H24.17V17.56H29.47V18.6H27.5V24H26.15ZM29.1649 24L31.6249 17.56H33.1049L35.5549 24H34.1549L33.5449 22.45H31.1749L30.5749 24H29.1649ZM31.3749 21.41H33.3449L32.3549 18.82L31.3749 21.41ZM39.047 24.1C37.967 24.1 37.147 23.8167 36.587 23.25C36.027 22.6833 35.747 21.8967 35.747 20.89C35.747 19.8233 36.0303 18.9867 36.597 18.38C37.1636 17.7667 38.007 17.46 39.127 17.46C39.5136 17.46 39.8636 17.4833 40.177 17.53C40.4903 17.57 40.787 17.6367 41.067 17.73V18.89C40.787 18.79 40.4903 18.72 40.177 18.68C39.8703 18.6333 39.5536 18.61 39.227 18.61C38.4603 18.61 37.917 18.8 37.597 19.18C37.277 19.5533 37.117 20.1233 37.117 20.89C37.117 22.27 37.767 22.96 39.067 22.96C39.2936 22.96 39.5136 22.9433 39.727 22.91C39.947 22.87 40.1403 22.82 40.307 22.76V21.26H38.807V20.4H41.447V23.55C41.227 23.69 40.9203 23.8167 40.527 23.93C40.1336 24.0433 39.6403 24.1 39.047 24.1Z" fill="white"/>
<path fill-rule="evenodd" clip-rule="evenodd" d="M1.41633 0L23.3763 5.3345L22 11L0.0400696 5.6655L1.41633 0ZM5.00001 3.5C5.00001 4.32843 4.32844 5 3.50001 5C2.67158 5 2.00001 4.32843 2.00001 3.5C2.00001 2.67157 2.67158 2 3.50001 2C4.32844 2 5.00001 2.67157 5.00001 3.5ZM12.5 7.5C13.3284 7.5 14 6.82843 14 6C14 5.17157 13.3284 4.5 12.5 4.5C11.6716 4.5 11 5.17157 11 6C11 6.82843 11.6716 7.5 12.5 7.5Z" fill="white"/>
<path fill-rule="evenodd" clip-rule="evenodd" d="M22 11H0V27H22V11ZM21 12H1V15H21V12Z" fill="white"/>
<line x1="8.01041" y1="11.3536" x2="2.35356" y2="17.0104" stroke="white"/>
<line x1="8.01041" y1="11.3536" x2="2.35356" y2="17.0104" stroke="white"/>
<line x1="13.6673" y1="11.3536" x2="8.01042" y2="17.0104" stroke="white"/>
<line x1="13.6673" y1="11.3536" x2="8.01042" y2="17.0104" stroke="white"/>
<line x1="19.3241" y1="11.3536" x2="13.6673" y2="17.0104" stroke="white"/>
<line x1="19.3241" y1="11.3536" x2="13.6673" y2="17.0104" stroke="white"/>
</svg>
